<svg width="120" height="24" viewBox="0 0 120 24" fill="none" xmlns="http://www.w3.org/2000/svg">
  <path d="M20.5 12C20.5 16.6944 16.6944 20.5 12 20.5C7.30558 20.5 3.5 16.6944 3.5 12C3.5 7.30558 7.30558 3.5 12 3.5C16.6944 3.5 20.5 7.30558 20.5 12Z" fill="white"/>
  <path d="M44.3125 7.25V16.75H42.4375V13.0625H38.0625V16.75H36.1875V7.25H38.0625V11.5H42.4375V7.25H44.3125Z" fill="white"/>
  <path d="M55.875 7.25V16.75H54V9.125H50.625V16.75H48.75V7.25H55.875Z" fill="white"/>
  <path d="M67.4375 7.25V16.75H65.5625V13.0625H61.1875V16.75H59.3125V7.25H61.1875V11.5H65.5625V7.25H67.4375Z" fill="white"/>
  <path d="M79 7.25V16.75H77.125V9.125H73.75V16.75H71.875V7.25H79Z" fill="white"/>
  <path d="M90.5625 7.25V16.75H88.6875V13.0625H84.3125V16.75H82.4375V7.25H84.3125V11.5H88.6875V7.25H90.5625Z" fill="white"/>
  <path d="M102.125 7.25V16.75H100.25V9.125H96.875V16.75H95V7.25H102.125Z" fill="white"/>
  <path d="M113.688 7.25V16.75H111.812V13.0625H107.438V16.75H105.562V7.25H107.438V11.5H111.812V7.25H113.688Z" fill="white"/>
</svg> 